HIERARCHY
ROOT Hips
{
	OFFSET 0.00000 0.00000 0.00000
	CHANNELS 6 Xposition Yposition Zposition Zrotation Yrotation Xrotation 
	JOINT LHipJoint
	{
		OFFSET 0 0 0
		CHANNELS 3 Zrotation Yrotation Xrotation
		JOINT LeftHip
		{
			OFFSET 3.13874 -1.57224 1.49786
			CHANNELS 3 Zrotation Yrotation Xrotation
			JOINT LeftKnee
			{
				OFFSET 2.10955 -5.79594 0.00000
				CHANNELS 3 Zrotation Yrotation Xrotation
				JOINT LeftAnkle
				{
					OFFSET 2.41843 -6.64458 0.00000
					CHANNELS 3 Zrotation Yrotation Xrotation
					JOINT LeftToe
					{
						OFFSET 0.04713 -0.12948 1.66229
						CHANNELS 3 Zrotation Yrotation Xrotation
						End Site
						{
							OFFSET 0.00000 -0.00000 0.85167
						}
					}
				}
			}
		}
	}
	JOINT RHipJoint
	{
		OFFSET 0 0 0
		CHANNELS 3 Zrotation Yrotation Xrotation
		JOINT RightHip
		{
			OFFSET -3.13988 -1.57224 1.49786
			CHANNELS 3 Zrotation Yrotation Xrotation
			JOINT RightKnee
			{
				OFFSET -2.15006 -5.90725 0.00000
				CHANNELS 3 Zrotation Yrotation Xrotation
				JOINT RightAnkle
				{
					OFFSET -2.34496 -6.44273 0.00000
					CHANNELS 3 Zrotation Yrotation Xrotation
					JOINT RightToe
					{
						OFFSET -0.08699 -0.23900 1.55223
						CHANNELS 3 Zrotation Yrotation Xrotation
						End Site
						{
							OFFSET -0.00000 -0.00000 0.80281
						}
					}
				}
			}
		}
	}
	JOINT lowerback
	{
		OFFSET 0 0 0
		CHANNELS 3 Zrotation Yrotation Xrotation
		JOINT Chest
		{
			OFFSET 0.01292 1.96517 -0.16495
			CHANNELS 3 Zrotation Yrotation Xrotation
			JOINT Chest2
			{
				OFFSET 0.02122 1.88666 0.19706
				CHANNELS 3 Zrotation Yrotation Xrotation
				JOINT lowerneck
				{
					OFFSET 0 0 0
					CHANNELS 3 Zrotation Yrotation Xrotation
					JOINT Neck
					{
						OFFSET -0.01683 1.81591 0.07903
						CHANNELS 3 Zrotation Yrotation Xrotation
						JOINT Head
						{
							OFFSET 0.00815 1.74013 -0.47700
							CHANNELS 3 Zrotation Yrotation Xrotation
							End Site
							{
								OFFSET -0.00204 1.83225 -0.16933
							}
						}
					}
				}
				JOINT LeftCollar
				{
					OFFSET 0 0 0
					CHANNELS 3 Zrotation Yrotation Xrotation
					JOINT LeftShoulder
					{
						OFFSET 3.38482 1.41533 0.19802
CHANNELS 3 Zrotation Xrotation Yrotation
						JOINT LeftElbow
						{
OFFSET 0 -4.327120 0.000000
CHANNELS 3 Zrotation Xrotation Yrotation
							JOINT LeftWrist
							{
OFFSET 0 -3.285870 -0.000000
CHANNELS 3 Zrotation Xrotation Yrotation
								JOINT lhand
								{
									OFFSET 0 0 0
CHANNELS 3 Zrotation Xrotation Yrotation
									JOINT LFingers
									{
OFFSET 0 -0.433160 -0.000000
CHANNELS 3 Zrotation Xrotation Yrotation
										End Site
										{
OFFSET 0 -0.349220 -0.000000
										}
									}
								}
								JOINT LThumb
								{
OFFSET 0 0.000000 0.000000
CHANNELS 3 Zrotation Xrotation Yrotation
									End Site
									{
OFFSET 0 -0.354560 0.354560
									}
								}
							}
						}
					}
				}
				JOINT RightCollar
				{
					OFFSET 0 0 0
					CHANNELS 3 Zrotation Yrotation Xrotation
					JOINT RightShoulder
					{
						OFFSET -3.09725 1.62858 -0.14144
CHANNELS 3 Zrotation Xrotation Yrotation
						JOINT RightElbow
						{
OFFSET 0 -4.291040 0.000000
CHANNELS 3 Zrotation Xrotation Yrotation
							JOINT RightWrist
							{
OFFSET 0 -3.227200 -0.000000
CHANNELS 3 Zrotation Xrotation Yrotation
								JOINT rhand
								{
									OFFSET 0 0 0
CHANNELS 3 Zrotation Xrotation Yrotation
									JOINT RFingers
									{
OFFSET 0 -0.543620 -0.000000
CHANNELS 3 Zrotation Xrotation Yrotation
										End Site
										{
OFFSET 0 -0.438280 -0.000000
										}
									}
								}
								JOINT RThumb
								{
OFFSET 0 0.000000 0.000000
CHANNELS 3 Zrotation Xrotation Yrotation
									End Site
									{
OFFSET 0 -0.444970 0.444970
									}
								}
							}
						}
					}
				}
			}
		}
	}
}
MOTION
Frames: 11
Frame Time: 0.008333333333333333
-31.944100 15.684000 3.303800 -178.297000 0.351800 -171.894000 0.000000 0.000000 0.000000 -6.058000 -21.863100 -16.415700 0.990500 6.334200 17.757200 2.369600 12.229500 -35.485600 10.407000 -17.632500 -60.840300 0.000000 0.000000 0.000000 0.000000 0.000000 0.000000 0.000000 0.000000 0.000000 -0.000000 -0.000000 0.000000 -0.000000 -0.000000 0.000000 4.856800 1.062900 5.381300 1.978400 3.270400 -10.017200 -1.188400 1.577100 -13.902700 -6.572200 -3.634100 -15.695300 6.862600 -8.695700 32.706200 2.187500 -4.683400 14.468100 0.000000 -0.000000 0.000000 4.005800 15.919700 -15.469900 17.602500 -27.645200 4.363200 26.337600 22.978100 -29.275700 0.000000 0.000000 0.000000 -7.125000 0.000000 0.000000 -5.515100 61.924800 2.274300 0.000000 -0.000000 0.000000 -18.946600 17.661900 49.025800 -19.121900 -29.569900 -5.090900 -18.100800 -11.845600 22.590200 0.000000 0.000000 0.000000 7.125000 0.000000 -0.000000 11.316500 53.265900 -2.324300
-31.945638 15.683774 3.303755 -178.315097 0.346642 -171.897167 0.000000 0.000000 0.000000 -6.089715 -21.840524 -16.395432 0.982673 6.309769 17.685898 2.349196 12.275964 -35.408100 10.398675 -17.628066 -60.812793 0.000000 0.000000 0.000000 0.000000 0.000000 0.000000 0.000000 0.000000 0.000000 0.000000 0.000000 0.000000 0.000000 0.000000 0.000000 4.819882 1.069867 5.392837 1.970980 3.274788 -10.019598 -1.177270 1.581941 -13.913377 -6.603055 -3.622789 -15.670236 6.827990 -8.649191 32.693261 2.188133 -4.670506 14.451496 0.000000 0.000000 0.000000 3.977524 15.905946 -15.597709 17.677738 -27.742425 4.398263 26.471652 22.822060 -29.177660 0.000000 0.000000 0.000000 -7.125000 0.000000 0.000000 -5.304860 61.857389 2.179337 0.000000 0.000000 0.000000 -18.876158 17.710988 49.107643 -19.231069 -29.704495 -5.145010 -18.173233 -11.760319 22.608433 0.000000 0.000000 0.000000 7.125000 0.000000 0.000000 11.251442 53.297524 -2.319369
-31.947176 15.683548 3.303710 -178.333194 0.341485 -171.900334 0.000000 0.000000 0.000000 -6.121429 -21.817948 -16.375163 0.974846 6.285339 17.614597 2.328792 12.322427 -35.330601 10.390351 -17.623633 -60.785286 0.000000 0.000000 0.000000 0.000000 0.000000 0.000000 0.000000 0.000000 0.000000 0.000000 0.000000 0.000000 0.000000 0.000000 0.000000 4.782965 1.076835 5.404373 1.963561 3.279177 -10.021996 -1.166141 1.586782 -13.924054 -6.633910 -3.611479 -15.645172 6.793380 -8.602682 32.680322 2.188767 -4.657612 14.434892 0.000000 0.000000 0.000000 3.949247 15.892193 -15.725518 17.752975 -27.839650 4.433325 26.605705 22.666020 -29.079621 0.000000 0.000000 0.000000 -7.125000 0.000000 0.000000 -5.094620 61.789979 2.084374 0.000000 0.000000 0.000000 -18.805716 17.760075 49.189486 -19.340238 -29.839090 -5.199119 -18.245665 -11.675037 22.626665 0.000000 0.000000 0.000000 7.125000 0.000000 0.000000 11.186384 53.329148 -2.314437
-31.949786 15.683929 3.303807 -178.383087 0.345902 -171.898856 0.000000 0.000000 0.000000 -6.193908 -21.850105 -16.337960 0.970163 6.270733 17.571984 2.349044 12.207123 -35.359672 10.340441 -17.596763 -60.620090 0.000000 0.000000 0.000000 0.000000 0.000000 0.000000 0.000000 0.000000 0.000000 0.000000 0.000000 0.000000 0.000000 0.000000 0.000000 4.717931 1.083873 5.402656 1.950067 3.276349 -10.018070 -1.144115 1.590515 -13.919441 -6.595921 -3.598382 -15.620608 6.665846 -8.533916 32.656843 2.143885 -4.636715 14.402712 0.000000 0.000000 0.000000 3.940906 15.882619 -15.906237 17.838680 -27.949916 4.473461 26.660873 22.502621 -29.068396 0.000000 0.000000 0.000000 -7.125000 0.000000 0.000000 -5.023212 61.792520 2.055218 0.000000 0.000000 0.000000 -18.784076 17.734281 49.362431 -19.459446 -29.985225 -5.258659 -18.268260 -11.756597 22.667870 0.000000 0.000000 0.000000 7.125000 0.000000 0.000000 11.180738 53.374777 -2.325833
-31.952682 15.684472 3.303943 -178.441449 0.352869 -171.896142 0.000000 0.000000 0.000000 -6.277244 -21.896840 -16.296247 0.966318 6.258743 17.537012 2.380125 12.048730 -35.417130 10.279455 -17.563917 -60.418220 0.000000 0.000000 0.000000 0.000000 0.000000 0.000000 0.000000 0.000000 0.000000 0.000000 0.000000 0.000000 0.000000 0.000000 0.000000 4.645408 1.090931 5.397408 1.934957 3.271598 -10.012460 -1.119186 1.593954 -13.910754 -6.539594 -3.584810 -15.596177 6.513561 -8.459221 32.630557 2.086880 -4.613687 14.366382 0.000000 0.000000 0.000000 3.937875 15.874159 -16.101049 17.927174 -28.063654 4.514948 26.695031 22.337261 -29.080295 0.000000 0.000000 0.000000 -7.125000 0.000000 0.000000 -4.988783 61.813693 2.043591 0.000000 0.000000 0.000000 -18.775435 17.688541 49.559641 -19.581329 -30.134433 -5.319645 -18.277579 -11.882597 22.715193 0.000000 0.000000 0.000000 7.125000 0.000000 0.000000 11.190918 53.424136 -2.341577
-31.955577 15.685093 3.304446 -178.485396 0.363375 -171.892903 0.000000 0.000000 0.000000 -6.335129 -21.963810 -16.250996 0.964019 6.251577 17.516114 2.443340 11.761068 -35.561186 10.193018 -17.516551 -60.130982 0.000000 0.000000 0.000000 0.000000 0.000000 0.000000 0.000000 0.000000 0.000000 0.000000 0.000000 0.000000 0.000000 0.000000 0.000000 4.583395 1.098277 5.390141 1.927106 3.268578 -10.001634 -1.092161 1.597733 -13.894624 -6.431974 -3.591629 -15.679917 6.298161 -8.416582 32.685236 1.986733 -4.604760 14.388135 0.000000 0.000000 0.000000 3.913954 15.848662 -16.244437 17.997425 -28.153777 4.548021 26.804884 22.264974 -29.073269 0.000000 0.000000 0.000000 -7.125000 0.000000 0.000000 -4.854492 61.834735 1.990761 0.000000 0.000000 0.000000 -18.799609 17.631714 49.740601 -19.700065 -30.279081 -5.379400 -18.109560 -12.047309 22.771768 0.000000 0.000000 0.000000 7.125000 0.000000 0.000000 11.383181 53.450090 -2.390006
-31.958473 15.685772 3.305215 -178.518875 0.376450 -171.889284 0.000000 0.000000 0.000000 -6.374535 -22.045472 -16.203175 0.962842 6.247912 17.505437 2.529888 11.379542 -35.768123 10.088102 -17.458641 -59.781759 0.000000 0.000000 0.000000 0.000000 0.000000 0.000000 0.000000 0.000000 0.000000 0.000000 0.000000 0.000000 0.000000 0.000000 0.000000 4.529014 1.105833 5.381410 1.924527 3.266813 -9.987021 -1.063614 1.601759 -13.873089 -6.287109 -3.613254 -15.842200 6.036934 -8.397218 32.798703 1.855259 -4.606072 14.452062 0.000000 0.000000 0.000000 3.874865 15.810794 -16.350484 18.054430 -28.226753 4.574986 26.969701 22.260269 -29.052503 0.000000 0.000000 0.000000 -7.125000 0.000000 0.000000 -4.647691 61.855682 1.908014 0.000000 0.000000 0.000000 -18.847611 17.566837 49.909761 -19.816519 -30.420417 -5.438260 -17.812772 -12.240130 22.835062 0.000000 0.000000 0.000000 7.125000 0.000000 0.000000 11.707657 53.459048 -2.462167
-31.961135 15.685916 3.306218 -178.540501 0.382663 -171.885164 0.000000 0.000000 0.000000 -6.397514 -22.114679 -16.167040 0.961816 6.244665 17.495995 2.614417 10.999518 -35.968099 9.985606 -17.401449 -59.439781 0.000000 0.000000 0.000000 0.000000 0.000000 0.000000 0.000000 0.000000 0.000000 0.000000 0.000000 0.000000 0.000000 0.000000 0.000000 4.487822 1.110817 5.384548 1.921648 3.265900 -9.980571 -1.043630 1.604801 -13.868482 -6.149423 -3.616750 -15.956303 5.802517 -8.356202 32.881001 1.741065 -4.596817 14.491165 0.000000 0.000000 0.000000 3.829716 15.775130 -16.401540 18.103689 -28.289745 4.598311 27.080528 22.272976 -29.036094 0.000000 0.000000 0.000000 -7.125000 0.000000 0.000000 -4.507400 61.867214 1.851593 0.000000 0.000000 0.000000 -18.925880 17.532978 50.118119 -19.951987 -30.584108 -5.507086 -17.587737 -12.459162 22.865985 0.000000 0.000000 0.000000 7.125000 0.000000 0.000000 11.946357 53.448740 -2.510254
-31.963397 15.685147 3.307620 -178.541858 0.377144 -171.880187 0.000000 0.000000 0.000000 -6.392401 -22.162591 -16.150889 0.961047 6.242132 17.488666 2.695490 10.622063 -36.156170 9.887250 -17.345484 -59.110192 0.000000 0.000000 0.000000 0.000000 0.000000 0.000000 0.000000 0.000000 0.000000 0.000000 0.000000 0.000000 0.000000 0.000000 0.000000 4.469182 1.111405 5.407983 1.918255 3.266443 -9.988081 -1.038291 1.606158 -13.892822 -6.024012 -3.589243 -15.988018 5.613948 -8.278159 32.910001 1.656417 -4.569490 14.487817 0.000000 0.000000 0.000000 3.774204 15.743235 -16.358560 18.139702 -28.335666 4.615412 27.099032 22.315458 -29.027137 0.000000 0.000000 0.000000 -7.125000 0.000000 0.000000 -4.480843 61.862644 1.840192 0.000000 0.000000 0.000000 -19.055906 17.552161 50.393508 -20.119970 -30.786023 -5.592956 -17.485399 -12.723014 22.841554 0.000000 0.000000 0.000000 7.125000 0.000000 0.000000 12.038379 53.405489 -2.517176
-31.965523 15.684356 3.308972 -178.541636 0.369241 -171.873272 0.000000 0.000000 0.000000 -6.385638 -22.201938 -16.142332 0.960249 6.239526 17.481107 2.763054 10.306575 -36.312318 9.795807 -17.293339 -58.803597 0.000000 0.000000 0.000000 0.000000 0.000000 0.000000 0.000000 0.000000 0.000000 0.000000 0.000000 0.000000 0.000000 0.000000 0.000000 4.448877 1.111922 5.431777 1.915465 3.267776 -9.999231 -1.031639 1.608283 -13.921886 -5.917552 -3.562611 -16.005052 5.454051 -8.207102 32.930904 1.585760 -4.544519 14.480678 0.000000 0.000000 0.000000 3.724420 15.718618 -16.325867 18.180100 -28.387143 4.634610 27.081822 22.334230 -29.029119 0.000000 0.000000 0.000000 -7.125000 0.000000 0.000000 -4.502383 61.860257 1.848841 0.000000 0.000000 0.000000 -19.149643 17.577525 50.614238 -20.269792 -30.966029 -5.669572 -17.443700 -12.928037 22.801381 0.000000 0.000000 0.000000 7.125000 0.000000 0.000000 12.063138 53.357535 -2.508564
-31.966925 15.683452 3.310058 -178.533040 0.348701 -171.856080 0.000000 0.000000 0.000000 -6.370120 -22.195876 -16.174047 0.959299 6.236540 17.472330 2.758982 10.319650 -36.299198 9.741019 -17.261443 -58.618919 0.000000 0.000000 0.000000 0.000000 0.000000 0.000000 0.000000 0.000000 0.000000 0.000000 0.000000 0.000000 0.000000 0.000000 0.000000 4.419741 1.112057 5.457475 1.915872 3.273295 -10.029679 -1.018021 1.614482 -13.975995 -5.911580 -3.540624 -15.944247 5.446179 -8.173080 32.908871 1.589289 -4.532032 14.453443 0.000000 0.000000 0.000000 3.705012 15.732598 -16.347719 18.243756 -28.468081 4.664922 26.875247 22.227277 -29.089110 0.000000 0.000000 0.000000 -7.125000 0.000000 0.000000 -4.778948 61.869441 1.963801 0.000000 0.000000 0.000000 -19.050970 17.635661 50.545154 -20.323314 -31.029866 -5.697124 -17.723522 -12.821130 22.677734 0.000000 0.000000 0.000000 7.125000 0.000000 0.000000 11.731242 53.284650 -2.417582
